<svg viewBox="0 0 889 35" shape-rendering="crispEdges" xmlns="http://www.w3.org/2000/svg">
  <rect y="0" x="548" width="313" height="35" fill="#cccccc" />
  <rect y="0" x="548" width="1" height="35" fill="#eecccc" />
  <rect y="0" x="552" width="1" height="35" fill="#eecccc" />
  <rect y="0" x="553" width="1" height="35" fill="#eecccc" />
  <rect y="0" x="606" width="1" height="35" fill="#eecccc" />
  <rect y="0" x="703" width="1" height="35" fill="#eecccc" />
  <rect y="0" x="706" width="1" height="35" fill="#eecccc" />
  <rect y="0" x="732" width="1" height="35" fill="#eecccc" />
  <rect y="0" x="748" width="1" height="35" fill="#eecccc" />
  <rect y="0" x="750" width="1" height="35" fill="#eecccc" />
  <rect y="0" x="751" width="1" height="35" fill="#eecccc" />
  <rect y="0" x="752" width="1" height="35" fill="#eecccc" />
  <rect y="0" x="757" width="1" height="35" fill="#eecccc" />
  <rect y="0" x="762" width="1" height="35" fill="#eecccc" />
  <rect y="0" x="763" width="1" height="35" fill="#eecccc" />
  <rect y="0" x="778" width="1" height="35" fill="#eecccc" />
  <rect y="0" x="780" width="1" height="35" fill="#eecccc" />
  <rect y="0" x="798" width="1" height="35" fill="#eecccc" />
  <rect y="0" x="799" width="1" height="35" fill="#eecccc" />
  <rect y="0" x="860" width="1" height="35" fill="#eecccc" />
	   <rect y="0" x="548" width="1" height="35" fill="#a3bff4" />
	   <rect y="0" x="552" width="1" height="35" fill="#a3bff4" />
	   <rect y="0" x="553" width="1" height="35" fill="#a3bff4" />
	   <rect y="0" x="606" width="1" height="35" fill="#a3bff4" />
	   <rect y="0" x="703" width="1" height="35" fill="#a3bff4" />
	   <rect y="0" x="706" width="1" height="35" fill="#a3bff4" />
	   <rect y="0" x="732" width="1" height="35" fill="#a3bff4" />
	   <rect y="0" x="748" width="1" height="35" fill="#a3bff4" />
	   <rect y="0" x="750" width="1" height="35" fill="#a3bff4" />
	   <rect y="0" x="751" width="1" height="35" fill="#a3bff4" />
	   <rect y="0" x="752" width="1" height="35" fill="#a3bff4" />
	   <rect y="0" x="757" width="1" height="35" fill="#a3bff4" />
	   <rect y="0" x="762" width="1" height="35" fill="#a3bff4" />
	   <rect y="0" x="763" width="1" height="35" fill="#a3bff4" />
	   <rect y="0" x="778" width="1" height="35" fill="#a3bff4" />
	   <rect y="0" x="780" width="1" height="35" fill="#a3bff4" />
	   <rect y="0" x="798" width="1" height="35" fill="#a3bff4" />
	   <rect y="0" x="799" width="1" height="35" fill="#a3bff4" />
	   <rect y="0" x="860" width="1" height="35" fill="#a3bff4" />
</svg>
