<svg viewBox="0 0 458 35" shape-rendering="crispEdges" xmlns="http://www.w3.org/2000/svg">
  <rect y="0" x="196" width="249" height="35" fill="#cccccc" />
  <rect y="0" x="196" width="1" height="35" fill="#eecccc" />
  <rect y="0" x="200" width="1" height="35" fill="#eecccc" />
  <rect y="0" x="307" width="1" height="35" fill="#eecccc" />
  <rect y="0" x="309" width="1" height="35" fill="#eecccc" />
  <rect y="0" x="310" width="1" height="35" fill="#eecccc" />
  <rect y="0" x="310" width="1" height="35" fill="#eecccc" />
  <rect y="0" x="315" width="1" height="35" fill="#eecccc" />
  <rect y="0" x="316" width="1" height="35" fill="#eecccc" />
  <rect y="0" x="317" width="1" height="35" fill="#eecccc" />
  <rect y="0" x="321" width="1" height="35" fill="#eecccc" />
  <rect y="0" x="324" width="1" height="35" fill="#eecccc" />
  <rect y="0" x="325" width="1" height="35" fill="#eecccc" />
  <rect y="0" x="325" width="1" height="35" fill="#eecccc" />
  <rect y="0" x="328" width="1" height="35" fill="#eecccc" />
  <rect y="0" x="328" width="1" height="35" fill="#eecccc" />
  <rect y="0" x="329" width="1" height="35" fill="#eecccc" />
  <rect y="0" x="329" width="1" height="35" fill="#eecccc" />
  <rect y="0" x="329" width="1" height="35" fill="#eecccc" />
  <rect y="0" x="329" width="1" height="35" fill="#eecccc" />
  <rect y="0" x="329" width="1" height="35" fill="#eecccc" />
  <rect y="0" x="329" width="1" height="35" fill="#eecccc" />
  <rect y="0" x="330" width="1" height="35" fill="#eecccc" />
  <rect y="0" x="330" width="1" height="35" fill="#eecccc" />
  <rect y="0" x="330" width="1" height="35" fill="#eecccc" />
  <rect y="0" x="330" width="1" height="35" fill="#eecccc" />
  <rect y="0" x="330" width="1" height="35" fill="#eecccc" />
  <rect y="0" x="332" width="1" height="35" fill="#eecccc" />
  <rect y="0" x="332" width="1" height="35" fill="#eecccc" />
  <rect y="0" x="333" width="1" height="35" fill="#eecccc" />
  <rect y="0" x="333" width="1" height="35" fill="#eecccc" />
  <rect y="0" x="333" width="1" height="35" fill="#eecccc" />
  <rect y="0" x="333" width="1" height="35" fill="#eecccc" />
  <rect y="0" x="334" width="1" height="35" fill="#eecccc" />
  <rect y="0" x="334" width="1" height="35" fill="#eecccc" />
  <rect y="0" x="335" width="1" height="35" fill="#eecccc" />
  <rect y="0" x="335" width="1" height="35" fill="#eecccc" />
  <rect y="0" x="335" width="1" height="35" fill="#eecccc" />
  <rect y="0" x="335" width="1" height="35" fill="#eecccc" />
  <rect y="0" x="338" width="1" height="35" fill="#eecccc" />
  <rect y="0" x="338" width="1" height="35" fill="#eecccc" />
  <rect y="0" x="338" width="1" height="35" fill="#eecccc" />
  <rect y="0" x="338" width="1" height="35" fill="#eecccc" />
  <rect y="0" x="339" width="1" height="35" fill="#eecccc" />
  <rect y="0" x="339" width="1" height="35" fill="#eecccc" />
  <rect y="0" x="340" width="1" height="35" fill="#eecccc" />
  <rect y="0" x="343" width="1" height="35" fill="#eecccc" />
  <rect y="0" x="344" width="1" height="35" fill="#eecccc" />
  <rect y="0" x="349" width="1" height="35" fill="#eecccc" />
  <rect y="0" x="357" width="1" height="35" fill="#eecccc" />
  <rect y="0" x="358" width="1" height="35" fill="#eecccc" />
  <rect y="0" x="360" width="1" height="35" fill="#eecccc" />
  <rect y="0" x="364" width="1" height="35" fill="#eecccc" />
  <rect y="0" x="368" width="1" height="35" fill="#eecccc" />
  <rect y="0" x="368" width="1" height="35" fill="#eecccc" />
  <rect y="0" x="423" width="1" height="35" fill="#eecccc" />
  <rect y="0" x="444" width="1" height="35" fill="#eecccc" />
</svg>
