<svg viewBox="0 0 889 35" shape-rendering="crispEdges" xmlns="http://www.w3.org/2000/svg">
  <rect y="0" x="633" width="31" height="35" fill="#cccccc" />
  <rect y="0" x="633" width="1" height="35" fill="#eecccc" />
  <rect y="0" x="635" width="1" height="35" fill="#eecccc" />
  <rect y="0" x="643" width="1" height="35" fill="#eecccc" />
  <rect y="0" x="646" width="1" height="35" fill="#eecccc" />
  <rect y="0" x="658" width="1" height="35" fill="#eecccc" />
  <rect y="0" x="661" width="1" height="35" fill="#eecccc" />
  <rect y="0" x="663" width="1" height="35" fill="#eecccc" />
	   <rect y="0" x="633" width="1" height="35" fill="#a3bff4" />
	   <rect y="0" x="635" width="1" height="35" fill="#a3bff4" />
	   <rect y="0" x="643" width="1" height="35" fill="#a3bff4" />
	   <rect y="0" x="646" width="1" height="35" fill="#a3bff4" />
	   <rect y="0" x="658" width="1" height="35" fill="#a3bff4" />
	   <rect y="0" x="661" width="1" height="35" fill="#a3bff4" />
	   <rect y="0" x="663" width="1" height="35" fill="#a3bff4" />
</svg>
