<svg viewBox="0 0 889 35" shape-rendering="crispEdges" xmlns="http://www.w3.org/2000/svg">
  <rect y="0" x="556" width="117" height="35" fill="#cccccc" />
  <rect y="0" x="556" width="1" height="35" fill="#eecccc" />
  <rect y="0" x="593" width="1" height="35" fill="#eecccc" />
  <rect y="0" x="598" width="1" height="35" fill="#eecccc" />
  <rect y="0" x="611" width="1" height="35" fill="#eecccc" />
  <rect y="0" x="635" width="1" height="35" fill="#eecccc" />
  <rect y="0" x="640" width="1" height="35" fill="#eecccc" />
  <rect y="0" x="672" width="1" height="35" fill="#eecccc" />
	   <rect y="0" x="556" width="1" height="35" fill="#a3bff4" />
	   <rect y="0" x="593" width="1" height="35" fill="#a3bff4" />
	   <rect y="0" x="598" width="1" height="35" fill="#a3bff4" />
	   <rect y="0" x="611" width="1" height="35" fill="#a3bff4" />
	   <rect y="0" x="635" width="1" height="35" fill="#a3bff4" />
	   <rect y="0" x="640" width="1" height="35" fill="#a3bff4" />
	   <rect y="0" x="672" width="1" height="35" fill="#a3bff4" />
</svg>
