<svg viewBox="0 0 889 35" shape-rendering="crispEdges" xmlns="http://www.w3.org/2000/svg">
  <rect y="0" x="530" width="324" height="35" fill="#cccccc" />
  <rect y="0" x="530" width="1" height="35" fill="#eecccc" />
  <rect y="0" x="722" width="1" height="35" fill="#eecccc" />
  <rect y="0" x="727" width="1" height="35" fill="#eecccc" />
  <rect y="0" x="743" width="1" height="35" fill="#eecccc" />
  <rect y="0" x="746" width="1" height="35" fill="#eecccc" />
  <rect y="0" x="756" width="1" height="35" fill="#eecccc" />
  <rect y="0" x="766" width="1" height="35" fill="#eecccc" />
  <rect y="0" x="767" width="1" height="35" fill="#eecccc" />
  <rect y="0" x="770" width="1" height="35" fill="#eecccc" />
  <rect y="0" x="773" width="1" height="35" fill="#eecccc" />
  <rect y="0" x="790" width="1" height="35" fill="#eecccc" />
  <rect y="0" x="791" width="1" height="35" fill="#eecccc" />
  <rect y="0" x="793" width="1" height="35" fill="#eecccc" />
  <rect y="0" x="800" width="1" height="35" fill="#eecccc" />
  <rect y="0" x="850" width="1" height="35" fill="#eecccc" />
  <rect y="0" x="853" width="1" height="35" fill="#eecccc" />
	   <rect y="0" x="530" width="1" height="35" fill="#a3bff4" />
	   <rect y="0" x="722" width="1" height="35" fill="#a3bff4" />
	   <rect y="0" x="727" width="1" height="35" fill="#a3bff4" />
	   <rect y="0" x="743" width="1" height="35" fill="#a3bff4" />
	   <rect y="0" x="746" width="1" height="35" fill="#a3bff4" />
	   <rect y="0" x="756" width="1" height="35" fill="#a3bff4" />
	   <rect y="0" x="766" width="1" height="35" fill="#a3bff4" />
	   <rect y="0" x="767" width="1" height="35" fill="#a3bff4" />
	   <rect y="0" x="770" width="1" height="35" fill="#a3bff4" />
	   <rect y="0" x="773" width="1" height="35" fill="#a3bff4" />
	   <rect y="0" x="790" width="1" height="35" fill="#a3bff4" />
	   <rect y="0" x="791" width="1" height="35" fill="#a3bff4" />
	   <rect y="0" x="793" width="1" height="35" fill="#a3bff4" />
	   <rect y="0" x="800" width="1" height="35" fill="#a3bff4" />
	   <rect y="0" x="850" width="1" height="35" fill="#a3bff4" />
	   <rect y="0" x="853" width="1" height="35" fill="#a3bff4" />
</svg>
