<svg viewBox="0 0 211 35" shape-rendering="crispEdges" xmlns="http://www.w3.org/2000/svg">
  <rect y="0" x="0" width="125" height="35" fill="#cccccc" />
  <rect y="0" x="0" width="1" height="35" fill="#eecccc" />
  <rect y="0" x="19" width="1" height="35" fill="#eecccc" />
  <rect y="0" x="27" width="1" height="35" fill="#eecccc" />
  <rect y="0" x="39" width="1" height="35" fill="#eecccc" />
  <rect y="0" x="41" width="1" height="35" fill="#eecccc" />
  <rect y="0" x="54" width="1" height="35" fill="#eecccc" />
  <rect y="0" x="55" width="1" height="35" fill="#eecccc" />
  <rect y="0" x="58" width="1" height="35" fill="#eecccc" />
  <rect y="0" x="59" width="1" height="35" fill="#eecccc" />
  <rect y="0" x="63" width="1" height="35" fill="#eecccc" />
  <rect y="0" x="73" width="1" height="35" fill="#eecccc" />
  <rect y="0" x="75" width="1" height="35" fill="#eecccc" />
  <rect y="0" x="76" width="1" height="35" fill="#eecccc" />
  <rect y="0" x="77" width="1" height="35" fill="#eecccc" />
  <rect y="0" x="78" width="1" height="35" fill="#eecccc" />
  <rect y="0" x="79" width="1" height="35" fill="#eecccc" />
  <rect y="0" x="84" width="1" height="35" fill="#eecccc" />
  <rect y="0" x="85" width="1" height="35" fill="#eecccc" />
  <rect y="0" x="86" width="1" height="35" fill="#eecccc" />
  <rect y="0" x="105" width="1" height="35" fill="#eecccc" />
  <rect y="0" x="124" width="1" height="35" fill="#eecccc" />
	   <rect y="0" x="0" width="1" height="35" fill="#a3bff4" />
	   <rect y="0" x="19" width="1" height="35" fill="#a3bff4" />
	   <rect y="0" x="27" width="1" height="35" fill="#a3bff4" />
	   <rect y="0" x="39" width="1" height="35" fill="#a3bff4" />
	   <rect y="0" x="41" width="1" height="35" fill="#a3bff4" />
	   <rect y="0" x="54" width="1" height="35" fill="#a3bff4" />
	   <rect y="0" x="55" width="1" height="35" fill="#a3bff4" />
	   <rect y="0" x="58" width="1" height="35" fill="#a3bff4" />
	   <rect y="0" x="59" width="1" height="35" fill="#a3bff4" />
	   <rect y="0" x="63" width="1" height="35" fill="#a3bff4" />
	   <rect y="0" x="73" width="1" height="35" fill="#a3bff4" />
	   <rect y="0" x="75" width="1" height="35" fill="#a3bff4" />
	   <rect y="0" x="76" width="1" height="35" fill="#a3bff4" />
	   <rect y="0" x="77" width="1" height="35" fill="#a3bff4" />
	   <rect y="0" x="78" width="1" height="35" fill="#a3bff4" />
	   <rect y="0" x="79" width="1" height="35" fill="#a3bff4" />
	   <rect y="0" x="84" width="1" height="35" fill="#a3bff4" />
	   <rect y="0" x="85" width="1" height="35" fill="#a3bff4" />
	   <rect y="0" x="86" width="1" height="35" fill="#a3bff4" />
	   <rect y="0" x="105" width="1" height="35" fill="#a3bff4" />
	   <rect y="0" x="124" width="1" height="35" fill="#a3bff4" />
</svg>
