<svg viewBox="0 0 889 35" shape-rendering="crispEdges" xmlns="http://www.w3.org/2000/svg">
  <rect y="0" x="558" width="145" height="35" fill="#cccccc" />
  <rect y="0" x="558" width="1" height="35" fill="#eecccc" />
  <rect y="0" x="562" width="1" height="35" fill="#eecccc" />
  <rect y="0" x="563" width="1" height="35" fill="#eecccc" />
  <rect y="0" x="571" width="1" height="35" fill="#eecccc" />
  <rect y="0" x="604" width="1" height="35" fill="#eecccc" />
  <rect y="0" x="610" width="1" height="35" fill="#eecccc" />
  <rect y="0" x="612" width="1" height="35" fill="#eecccc" />
  <rect y="0" x="628" width="1" height="35" fill="#eecccc" />
  <rect y="0" x="666" width="1" height="35" fill="#eecccc" />
  <rect y="0" x="668" width="1" height="35" fill="#eecccc" />
  <rect y="0" x="680" width="1" height="35" fill="#eecccc" />
  <rect y="0" x="683" width="1" height="35" fill="#eecccc" />
  <rect y="0" x="702" width="1" height="35" fill="#eecccc" />
	   <rect y="0" x="558" width="1" height="35" fill="#a3bff4" />
	   <rect y="0" x="562" width="1" height="35" fill="#a3bff4" />
	   <rect y="0" x="563" width="1" height="35" fill="#a3bff4" />
	   <rect y="0" x="571" width="1" height="35" fill="#a3bff4" />
	   <rect y="0" x="604" width="1" height="35" fill="#a3bff4" />
	   <rect y="0" x="610" width="1" height="35" fill="#a3bff4" />
	   <rect y="0" x="612" width="1" height="35" fill="#a3bff4" />
	   <rect y="0" x="628" width="1" height="35" fill="#a3bff4" />
	   <rect y="0" x="666" width="1" height="35" fill="#a3bff4" />
	   <rect y="0" x="668" width="1" height="35" fill="#a3bff4" />
	   <rect y="0" x="680" width="1" height="35" fill="#a3bff4" />
	   <rect y="0" x="683" width="1" height="35" fill="#a3bff4" />
	   <rect y="0" x="702" width="1" height="35" fill="#a3bff4" />
</svg>
