<svg viewBox="0 0 889 35" shape-rendering="crispEdges" xmlns="http://www.w3.org/2000/svg">
  <rect y="0" x="677" width="125" height="35" fill="#cccccc" />
  <rect y="0" x="677" width="1" height="35" fill="#eecccc" />
  <rect y="0" x="696" width="1" height="35" fill="#eecccc" />
  <rect y="0" x="704" width="1" height="35" fill="#eecccc" />
  <rect y="0" x="716" width="1" height="35" fill="#eecccc" />
  <rect y="0" x="718" width="1" height="35" fill="#eecccc" />
  <rect y="0" x="731" width="1" height="35" fill="#eecccc" />
  <rect y="0" x="732" width="1" height="35" fill="#eecccc" />
  <rect y="0" x="735" width="1" height="35" fill="#eecccc" />
  <rect y="0" x="736" width="1" height="35" fill="#eecccc" />
  <rect y="0" x="740" width="1" height="35" fill="#eecccc" />
  <rect y="0" x="750" width="1" height="35" fill="#eecccc" />
  <rect y="0" x="752" width="1" height="35" fill="#eecccc" />
  <rect y="0" x="753" width="1" height="35" fill="#eecccc" />
  <rect y="0" x="754" width="1" height="35" fill="#eecccc" />
  <rect y="0" x="755" width="1" height="35" fill="#eecccc" />
  <rect y="0" x="756" width="1" height="35" fill="#eecccc" />
  <rect y="0" x="761" width="1" height="35" fill="#eecccc" />
  <rect y="0" x="762" width="1" height="35" fill="#eecccc" />
  <rect y="0" x="763" width="1" height="35" fill="#eecccc" />
  <rect y="0" x="782" width="1" height="35" fill="#eecccc" />
  <rect y="0" x="801" width="1" height="35" fill="#eecccc" />
	   <rect y="0" x="677" width="1" height="35" fill="#a3bff4" />
	   <rect y="0" x="696" width="1" height="35" fill="#a3bff4" />
	   <rect y="0" x="704" width="1" height="35" fill="#a3bff4" />
	   <rect y="0" x="716" width="1" height="35" fill="#a3bff4" />
	   <rect y="0" x="718" width="1" height="35" fill="#a3bff4" />
	   <rect y="0" x="731" width="1" height="35" fill="#a3bff4" />
	   <rect y="0" x="732" width="1" height="35" fill="#a3bff4" />
	   <rect y="0" x="735" width="1" height="35" fill="#a3bff4" />
	   <rect y="0" x="736" width="1" height="35" fill="#a3bff4" />
	   <rect y="0" x="740" width="1" height="35" fill="#a3bff4" />
	   <rect y="0" x="750" width="1" height="35" fill="#a3bff4" />
	   <rect y="0" x="752" width="1" height="35" fill="#a3bff4" />
	   <rect y="0" x="753" width="1" height="35" fill="#a3bff4" />
	   <rect y="0" x="754" width="1" height="35" fill="#a3bff4" />
	   <rect y="0" x="755" width="1" height="35" fill="#a3bff4" />
	   <rect y="0" x="756" width="1" height="35" fill="#a3bff4" />
	   <rect y="0" x="761" width="1" height="35" fill="#a3bff4" />
	   <rect y="0" x="762" width="1" height="35" fill="#a3bff4" />
	   <rect y="0" x="763" width="1" height="35" fill="#a3bff4" />
	   <rect y="0" x="782" width="1" height="35" fill="#a3bff4" />
	   <rect y="0" x="801" width="1" height="35" fill="#a3bff4" />
</svg>
