<svg viewBox="0 0 889 35" shape-rendering="crispEdges" xmlns="http://www.w3.org/2000/svg">
  <rect y="0" x="536" width="342" height="35" fill="#cccccc" />
  <rect y="0" x="536" width="1" height="35" fill="#eecccc" />
  <rect y="0" x="541" width="1" height="35" fill="#eecccc" />
  <rect y="0" x="546" width="1" height="35" fill="#eecccc" />
  <rect y="0" x="547" width="1" height="35" fill="#eecccc" />
  <rect y="0" x="573" width="1" height="35" fill="#eecccc" />
  <rect y="0" x="602" width="1" height="35" fill="#eecccc" />
  <rect y="0" x="605" width="1" height="35" fill="#eecccc" />
  <rect y="0" x="616" width="1" height="35" fill="#eecccc" />
  <rect y="0" x="645" width="1" height="35" fill="#eecccc" />
  <rect y="0" x="648" width="1" height="35" fill="#eecccc" />
  <rect y="0" x="744" width="1" height="35" fill="#eecccc" />
  <rect y="0" x="750" width="1" height="35" fill="#eecccc" />
  <rect y="0" x="752" width="1" height="35" fill="#eecccc" />
  <rect y="0" x="753" width="1" height="35" fill="#eecccc" />
  <rect y="0" x="754" width="1" height="35" fill="#eecccc" />
  <rect y="0" x="756" width="1" height="35" fill="#eecccc" />
  <rect y="0" x="759" width="1" height="35" fill="#eecccc" />
  <rect y="0" x="762" width="1" height="35" fill="#eecccc" />
  <rect y="0" x="766" width="1" height="35" fill="#eecccc" />
  <rect y="0" x="768" width="1" height="35" fill="#eecccc" />
  <rect y="0" x="770" width="1" height="35" fill="#eecccc" />
  <rect y="0" x="772" width="1" height="35" fill="#eecccc" />
  <rect y="0" x="773" width="1" height="35" fill="#eecccc" />
  <rect y="0" x="775" width="1" height="35" fill="#eecccc" />
  <rect y="0" x="792" width="1" height="35" fill="#eecccc" />
  <rect y="0" x="794" width="1" height="35" fill="#eecccc" />
  <rect y="0" x="800" width="1" height="35" fill="#eecccc" />
  <rect y="0" x="803" width="1" height="35" fill="#eecccc" />
  <rect y="0" x="804" width="1" height="35" fill="#eecccc" />
  <rect y="0" x="847" width="1" height="35" fill="#eecccc" />
  <rect y="0" x="859" width="1" height="35" fill="#eecccc" />
  <rect y="0" x="860" width="1" height="35" fill="#eecccc" />
  <rect y="0" x="865" width="1" height="35" fill="#eecccc" />
  <rect y="0" x="877" width="1" height="35" fill="#eecccc" />
	   <rect y="0" x="536" width="1" height="35" fill="#a3bff4" />
	   <rect y="0" x="541" width="1" height="35" fill="#a3bff4" />
	   <rect y="0" x="546" width="1" height="35" fill="#a3bff4" />
	   <rect y="0" x="547" width="1" height="35" fill="#a3bff4" />
	   <rect y="0" x="573" width="1" height="35" fill="#a3bff4" />
	   <rect y="0" x="602" width="1" height="35" fill="#a3bff4" />
	   <rect y="0" x="605" width="1" height="35" fill="#a3bff4" />
	   <rect y="0" x="616" width="1" height="35" fill="#a3bff4" />
	   <rect y="0" x="645" width="1" height="35" fill="#a3bff4" />
	   <rect y="0" x="648" width="1" height="35" fill="#a3bff4" />
	   <rect y="0" x="744" width="1" height="35" fill="#a3bff4" />
	   <rect y="0" x="750" width="1" height="35" fill="#a3bff4" />
	   <rect y="0" x="752" width="1" height="35" fill="#a3bff4" />
	   <rect y="0" x="753" width="1" height="35" fill="#a3bff4" />
	   <rect y="0" x="754" width="1" height="35" fill="#a3bff4" />
	   <rect y="0" x="756" width="1" height="35" fill="#a3bff4" />
	   <rect y="0" x="759" width="1" height="35" fill="#a3bff4" />
	   <rect y="0" x="762" width="1" height="35" fill="#a3bff4" />
	   <rect y="0" x="766" width="1" height="35" fill="#a3bff4" />
	   <rect y="0" x="768" width="1" height="35" fill="#a3bff4" />
	   <rect y="0" x="770" width="1" height="35" fill="#a3bff4" />
	   <rect y="0" x="772" width="1" height="35" fill="#a3bff4" />
	   <rect y="0" x="773" width="1" height="35" fill="#a3bff4" />
	   <rect y="0" x="775" width="1" height="35" fill="#a3bff4" />
	   <rect y="0" x="792" width="1" height="35" fill="#a3bff4" />
	   <rect y="0" x="794" width="1" height="35" fill="#a3bff4" />
	   <rect y="0" x="800" width="1" height="35" fill="#a3bff4" />
	   <rect y="0" x="803" width="1" height="35" fill="#a3bff4" />
	   <rect y="0" x="804" width="1" height="35" fill="#a3bff4" />
	   <rect y="0" x="847" width="1" height="35" fill="#a3bff4" />
	   <rect y="0" x="859" width="1" height="35" fill="#a3bff4" />
	   <rect y="0" x="860" width="1" height="35" fill="#a3bff4" />
	   <rect y="0" x="865" width="1" height="35" fill="#a3bff4" />
	   <rect y="0" x="877" width="1" height="35" fill="#a3bff4" />
</svg>
