<svg viewBox="0 0 889 35" shape-rendering="crispEdges" xmlns="http://www.w3.org/2000/svg">
  <rect y="0" x="626" width="262" height="35" fill="#cccccc" />
  <rect y="0" x="626" width="1" height="35" fill="#eecccc" />
  <rect y="0" x="630" width="1" height="35" fill="#eecccc" />
  <rect y="0" x="737" width="1" height="35" fill="#eecccc" />
  <rect y="0" x="739" width="1" height="35" fill="#eecccc" />
  <rect y="0" x="740" width="1" height="35" fill="#eecccc" />
  <rect y="0" x="740" width="1" height="35" fill="#eecccc" />
  <rect y="0" x="745" width="1" height="35" fill="#eecccc" />
  <rect y="0" x="746" width="1" height="35" fill="#eecccc" />
  <rect y="0" x="747" width="1" height="35" fill="#eecccc" />
  <rect y="0" x="751" width="1" height="35" fill="#eecccc" />
  <rect y="0" x="754" width="1" height="35" fill="#eecccc" />
  <rect y="0" x="755" width="1" height="35" fill="#eecccc" />
  <rect y="0" x="755" width="1" height="35" fill="#eecccc" />
  <rect y="0" x="758" width="1" height="35" fill="#eecccc" />
  <rect y="0" x="758" width="1" height="35" fill="#eecccc" />
  <rect y="0" x="759" width="1" height="35" fill="#eecccc" />
  <rect y="0" x="759" width="1" height="35" fill="#eecccc" />
  <rect y="0" x="759" width="1" height="35" fill="#eecccc" />
  <rect y="0" x="759" width="1" height="35" fill="#eecccc" />
  <rect y="0" x="759" width="1" height="35" fill="#eecccc" />
  <rect y="0" x="759" width="1" height="35" fill="#eecccc" />
  <rect y="0" x="760" width="1" height="35" fill="#eecccc" />
  <rect y="0" x="760" width="1" height="35" fill="#eecccc" />
  <rect y="0" x="760" width="1" height="35" fill="#eecccc" />
  <rect y="0" x="760" width="1" height="35" fill="#eecccc" />
  <rect y="0" x="760" width="1" height="35" fill="#eecccc" />
  <rect y="0" x="762" width="1" height="35" fill="#eecccc" />
  <rect y="0" x="762" width="1" height="35" fill="#eecccc" />
  <rect y="0" x="763" width="1" height="35" fill="#eecccc" />
  <rect y="0" x="763" width="1" height="35" fill="#eecccc" />
  <rect y="0" x="763" width="1" height="35" fill="#eecccc" />
  <rect y="0" x="763" width="1" height="35" fill="#eecccc" />
  <rect y="0" x="764" width="1" height="35" fill="#eecccc" />
  <rect y="0" x="764" width="1" height="35" fill="#eecccc" />
  <rect y="0" x="765" width="1" height="35" fill="#eecccc" />
  <rect y="0" x="765" width="1" height="35" fill="#eecccc" />
  <rect y="0" x="765" width="1" height="35" fill="#eecccc" />
  <rect y="0" x="765" width="1" height="35" fill="#eecccc" />
  <rect y="0" x="767" width="1" height="35" fill="#eecccc" />
  <rect y="0" x="768" width="1" height="35" fill="#eecccc" />
  <rect y="0" x="768" width="1" height="35" fill="#eecccc" />
  <rect y="0" x="768" width="1" height="35" fill="#eecccc" />
  <rect y="0" x="768" width="1" height="35" fill="#eecccc" />
  <rect y="0" x="769" width="1" height="35" fill="#eecccc" />
  <rect y="0" x="769" width="1" height="35" fill="#eecccc" />
  <rect y="0" x="770" width="1" height="35" fill="#eecccc" />
  <rect y="0" x="773" width="1" height="35" fill="#eecccc" />
  <rect y="0" x="774" width="1" height="35" fill="#eecccc" />
  <rect y="0" x="779" width="1" height="35" fill="#eecccc" />
  <rect y="0" x="787" width="1" height="35" fill="#eecccc" />
  <rect y="0" x="788" width="1" height="35" fill="#eecccc" />
  <rect y="0" x="790" width="1" height="35" fill="#eecccc" />
  <rect y="0" x="794" width="1" height="35" fill="#eecccc" />
  <rect y="0" x="798" width="1" height="35" fill="#eecccc" />
  <rect y="0" x="798" width="1" height="35" fill="#eecccc" />
  <rect y="0" x="853" width="1" height="35" fill="#eecccc" />
  <rect y="0" x="874" width="1" height="35" fill="#eecccc" />
  <rect y="0" x="887" width="1" height="35" fill="#eecccc" />
</svg>
