<svg viewBox="0 0 458 35" shape-rendering="crispEdges" xmlns="http://www.w3.org/2000/svg">
  <rect y="0" x="247" width="125" height="35" fill="#cccccc" />
  <rect y="0" x="247" width="1" height="35" fill="#eecccc" />
  <rect y="0" x="266" width="1" height="35" fill="#eecccc" />
  <rect y="0" x="274" width="1" height="35" fill="#eecccc" />
  <rect y="0" x="286" width="1" height="35" fill="#eecccc" />
  <rect y="0" x="288" width="1" height="35" fill="#eecccc" />
  <rect y="0" x="301" width="1" height="35" fill="#eecccc" />
  <rect y="0" x="302" width="1" height="35" fill="#eecccc" />
  <rect y="0" x="305" width="1" height="35" fill="#eecccc" />
  <rect y="0" x="306" width="1" height="35" fill="#eecccc" />
  <rect y="0" x="310" width="1" height="35" fill="#eecccc" />
  <rect y="0" x="320" width="1" height="35" fill="#eecccc" />
  <rect y="0" x="322" width="1" height="35" fill="#eecccc" />
  <rect y="0" x="323" width="1" height="35" fill="#eecccc" />
  <rect y="0" x="324" width="1" height="35" fill="#eecccc" />
  <rect y="0" x="325" width="1" height="35" fill="#eecccc" />
  <rect y="0" x="326" width="1" height="35" fill="#eecccc" />
  <rect y="0" x="331" width="1" height="35" fill="#eecccc" />
  <rect y="0" x="332" width="1" height="35" fill="#eecccc" />
  <rect y="0" x="333" width="1" height="35" fill="#eecccc" />
  <rect y="0" x="352" width="1" height="35" fill="#eecccc" />
  <rect y="0" x="371" width="1" height="35" fill="#eecccc" />
	   <rect y="0" x="247" width="1" height="35" fill="#a3bff4" />
	   <rect y="0" x="266" width="1" height="35" fill="#a3bff4" />
	   <rect y="0" x="274" width="1" height="35" fill="#a3bff4" />
	   <rect y="0" x="286" width="1" height="35" fill="#a3bff4" />
	   <rect y="0" x="288" width="1" height="35" fill="#a3bff4" />
	   <rect y="0" x="301" width="1" height="35" fill="#a3bff4" />
	   <rect y="0" x="302" width="1" height="35" fill="#a3bff4" />
	   <rect y="0" x="305" width="1" height="35" fill="#a3bff4" />
	   <rect y="0" x="306" width="1" height="35" fill="#a3bff4" />
	   <rect y="0" x="310" width="1" height="35" fill="#a3bff4" />
	   <rect y="0" x="320" width="1" height="35" fill="#a3bff4" />
	   <rect y="0" x="322" width="1" height="35" fill="#a3bff4" />
	   <rect y="0" x="323" width="1" height="35" fill="#a3bff4" />
	   <rect y="0" x="324" width="1" height="35" fill="#a3bff4" />
	   <rect y="0" x="325" width="1" height="35" fill="#a3bff4" />
	   <rect y="0" x="326" width="1" height="35" fill="#a3bff4" />
	   <rect y="0" x="331" width="1" height="35" fill="#a3bff4" />
	   <rect y="0" x="332" width="1" height="35" fill="#a3bff4" />
	   <rect y="0" x="333" width="1" height="35" fill="#a3bff4" />
	   <rect y="0" x="352" width="1" height="35" fill="#a3bff4" />
	   <rect y="0" x="371" width="1" height="35" fill="#a3bff4" />
</svg>
