<svg viewBox="0 0 889 35" shape-rendering="crispEdges" xmlns="http://www.w3.org/2000/svg">
  <rect y="0" x="589" width="191" height="35" fill="#cccccc" />
  <rect y="0" x="589" width="1" height="35" fill="#eecccc" />
  <rect y="0" x="684" width="1" height="35" fill="#eecccc" />
  <rect y="0" x="706" width="1" height="35" fill="#eecccc" />
  <rect y="0" x="711" width="1" height="35" fill="#eecccc" />
  <rect y="0" x="733" width="1" height="35" fill="#eecccc" />
  <rect y="0" x="756" width="1" height="35" fill="#eecccc" />
  <rect y="0" x="761" width="1" height="35" fill="#eecccc" />
  <rect y="0" x="779" width="1" height="35" fill="#eecccc" />
	   <rect y="0" x="589" width="1" height="35" fill="#a3bff4" />
	   <rect y="0" x="684" width="1" height="35" fill="#a3bff4" />
	   <rect y="0" x="706" width="1" height="35" fill="#a3bff4" />
	   <rect y="0" x="711" width="1" height="35" fill="#a3bff4" />
	   <rect y="0" x="733" width="1" height="35" fill="#a3bff4" />
	   <rect y="0" x="756" width="1" height="35" fill="#a3bff4" />
	   <rect y="0" x="761" width="1" height="35" fill="#a3bff4" />
	   <rect y="0" x="779" width="1" height="35" fill="#a3bff4" />
</svg>
