<svg viewBox="0 0 458 35" shape-rendering="crispEdges" xmlns="http://www.w3.org/2000/svg">
  <rect y="0" x="293" width="112" height="35" fill="#cccccc" />
  <rect y="0" x="293" width="1" height="35" fill="#eecccc" />
  <rect y="0" x="302" width="1" height="35" fill="#eecccc" />
  <rect y="0" x="311" width="1" height="35" fill="#eecccc" />
  <rect y="0" x="340" width="1" height="35" fill="#eecccc" />
  <rect y="0" x="342" width="1" height="35" fill="#eecccc" />
  <rect y="0" x="363" width="1" height="35" fill="#eecccc" />
  <rect y="0" x="403" width="1" height="35" fill="#eecccc" />
  <rect y="0" x="404" width="1" height="35" fill="#eecccc" />
	   <rect y="0" x="293" width="1" height="35" fill="#a3bff4" />
	   <rect y="0" x="302" width="1" height="35" fill="#a3bff4" />
	   <rect y="0" x="311" width="1" height="35" fill="#a3bff4" />
	   <rect y="0" x="340" width="1" height="35" fill="#a3bff4" />
	   <rect y="0" x="342" width="1" height="35" fill="#a3bff4" />
	   <rect y="0" x="363" width="1" height="35" fill="#a3bff4" />
	   <rect y="0" x="403" width="1" height="35" fill="#a3bff4" />
	   <rect y="0" x="404" width="1" height="35" fill="#a3bff4" />
</svg>
