<svg viewBox="0 0 889 35" shape-rendering="crispEdges" xmlns="http://www.w3.org/2000/svg">
  <rect y="0" x="723" width="112" height="35" fill="#cccccc" />
  <rect y="0" x="723" width="1" height="35" fill="#eecccc" />
  <rect y="0" x="732" width="1" height="35" fill="#eecccc" />
  <rect y="0" x="741" width="1" height="35" fill="#eecccc" />
  <rect y="0" x="770" width="1" height="35" fill="#eecccc" />
  <rect y="0" x="772" width="1" height="35" fill="#eecccc" />
  <rect y="0" x="793" width="1" height="35" fill="#eecccc" />
  <rect y="0" x="833" width="1" height="35" fill="#eecccc" />
  <rect y="0" x="834" width="1" height="35" fill="#eecccc" />
	   <rect y="0" x="723" width="1" height="35" fill="#a3bff4" />
	   <rect y="0" x="732" width="1" height="35" fill="#a3bff4" />
	   <rect y="0" x="741" width="1" height="35" fill="#a3bff4" />
	   <rect y="0" x="770" width="1" height="35" fill="#a3bff4" />
	   <rect y="0" x="772" width="1" height="35" fill="#a3bff4" />
	   <rect y="0" x="793" width="1" height="35" fill="#a3bff4" />
	   <rect y="0" x="833" width="1" height="35" fill="#a3bff4" />
	   <rect y="0" x="834" width="1" height="35" fill="#a3bff4" />
</svg>
