<svg viewBox="0 0 889 35" shape-rendering="crispEdges" xmlns="http://www.w3.org/2000/svg">
  <rect y="0" x="543" width="191" height="35" fill="#cccccc" />
  <rect y="0" x="543" width="1" height="35" fill="#eecccc" />
  <rect y="0" x="564" width="1" height="35" fill="#eecccc" />
  <rect y="0" x="580" width="1" height="35" fill="#eecccc" />
  <rect y="0" x="581" width="1" height="35" fill="#eecccc" />
  <rect y="0" x="582" width="1" height="35" fill="#eecccc" />
  <rect y="0" x="600" width="1" height="35" fill="#eecccc" />
  <rect y="0" x="614" width="1" height="35" fill="#eecccc" />
  <rect y="0" x="617" width="1" height="35" fill="#eecccc" />
  <rect y="0" x="621" width="1" height="35" fill="#eecccc" />
  <rect y="0" x="624" width="1" height="35" fill="#eecccc" />
  <rect y="0" x="629" width="1" height="35" fill="#eecccc" />
  <rect y="0" x="638" width="1" height="35" fill="#eecccc" />
  <rect y="0" x="697" width="1" height="35" fill="#eecccc" />
  <rect y="0" x="710" width="1" height="35" fill="#eecccc" />
  <rect y="0" x="733" width="1" height="35" fill="#eecccc" />
	   <rect y="0" x="543" width="1" height="35" fill="#a3bff4" />
	   <rect y="0" x="564" width="1" height="35" fill="#a3bff4" />
	   <rect y="0" x="580" width="1" height="35" fill="#a3bff4" />
	   <rect y="0" x="581" width="1" height="35" fill="#a3bff4" />
	   <rect y="0" x="582" width="1" height="35" fill="#a3bff4" />
	   <rect y="0" x="600" width="1" height="35" fill="#a3bff4" />
	   <rect y="0" x="614" width="1" height="35" fill="#a3bff4" />
	   <rect y="0" x="617" width="1" height="35" fill="#a3bff4" />
	   <rect y="0" x="621" width="1" height="35" fill="#a3bff4" />
	   <rect y="0" x="624" width="1" height="35" fill="#a3bff4" />
	   <rect y="0" x="629" width="1" height="35" fill="#a3bff4" />
	   <rect y="0" x="638" width="1" height="35" fill="#a3bff4" />
	   <rect y="0" x="697" width="1" height="35" fill="#a3bff4" />
	   <rect y="0" x="710" width="1" height="35" fill="#a3bff4" />
	   <rect y="0" x="733" width="1" height="35" fill="#a3bff4" />
</svg>
