<svg viewBox="0 0 415 35" shape-rendering="crispEdges" xmlns="http://www.w3.org/2000/svg">
  <rect y="0" x="114" width="298" height="35" fill="#a3bff4" />
  <rect y="0" x="114" width="1" height="35" fill="#c8e3c2" />
  <rect y="0" x="122" width="1" height="35" fill="#c8e3c2" />
  <rect y="0" x="123" width="1" height="35" fill="#c8e3c2" />
  <rect y="0" x="175" width="1" height="35" fill="#c8e3c2" />
  <rect y="0" x="243" width="1" height="35" fill="#c8e3c2" />
  <rect y="0" x="245" width="1" height="35" fill="#c8e3c2" />
  <rect y="0" x="248" width="1" height="35" fill="#c8e3c2" />
  <rect y="0" x="252" width="1" height="35" fill="#c8e3c2" />
  <rect y="0" x="254" width="1" height="35" fill="#c8e3c2" />
  <rect y="0" x="256" width="1" height="35" fill="#c8e3c2" />
  <rect y="0" x="256" width="1" height="35" fill="#c8e3c2" />
  <rect y="0" x="262" width="1" height="35" fill="#c8e3c2" />
  <rect y="0" x="264" width="1" height="35" fill="#c8e3c2" />
  <rect y="0" x="264" width="1" height="35" fill="#c8e3c2" />
  <rect y="0" x="265" width="1" height="35" fill="#c8e3c2" />
  <rect y="0" x="270" width="1" height="35" fill="#c8e3c2" />
  <rect y="0" x="271" width="1" height="35" fill="#c8e3c2" />
  <rect y="0" x="271" width="1" height="35" fill="#c8e3c2" />
  <rect y="0" x="271" width="1" height="35" fill="#c8e3c2" />
  <rect y="0" x="271" width="1" height="35" fill="#c8e3c2" />
  <rect y="0" x="273" width="1" height="35" fill="#c8e3c2" />
  <rect y="0" x="273" width="1" height="35" fill="#c8e3c2" />
  <rect y="0" x="273" width="1" height="35" fill="#c8e3c2" />
  <rect y="0" x="274" width="1" height="35" fill="#c8e3c2" />
  <rect y="0" x="274" width="1" height="35" fill="#c8e3c2" />
  <rect y="0" x="275" width="1" height="35" fill="#c8e3c2" />
  <rect y="0" x="276" width="1" height="35" fill="#c8e3c2" />
  <rect y="0" x="276" width="1" height="35" fill="#c8e3c2" />
  <rect y="0" x="276" width="1" height="35" fill="#c8e3c2" />
  <rect y="0" x="277" width="1" height="35" fill="#c8e3c2" />
  <rect y="0" x="277" width="1" height="35" fill="#c8e3c2" />
  <rect y="0" x="279" width="1" height="35" fill="#c8e3c2" />
  <rect y="0" x="280" width="1" height="35" fill="#c8e3c2" />
  <rect y="0" x="280" width="1" height="35" fill="#c8e3c2" />
  <rect y="0" x="280" width="1" height="35" fill="#c8e3c2" />
  <rect y="0" x="281" width="1" height="35" fill="#c8e3c2" />
  <rect y="0" x="281" width="1" height="35" fill="#c8e3c2" />
  <rect y="0" x="281" width="1" height="35" fill="#c8e3c2" />
  <rect y="0" x="281" width="1" height="35" fill="#c8e3c2" />
  <rect y="0" x="282" width="1" height="35" fill="#c8e3c2" />
  <rect y="0" x="282" width="1" height="35" fill="#c8e3c2" />
  <rect y="0" x="282" width="1" height="35" fill="#c8e3c2" />
  <rect y="0" x="282" width="1" height="35" fill="#c8e3c2" />
  <rect y="0" x="283" width="1" height="35" fill="#c8e3c2" />
  <rect y="0" x="283" width="1" height="35" fill="#c8e3c2" />
  <rect y="0" x="284" width="1" height="35" fill="#c8e3c2" />
  <rect y="0" x="285" width="1" height="35" fill="#c8e3c2" />
  <rect y="0" x="285" width="1" height="35" fill="#c8e3c2" />
  <rect y="0" x="286" width="1" height="35" fill="#c8e3c2" />
  <rect y="0" x="286" width="1" height="35" fill="#c8e3c2" />
  <rect y="0" x="288" width="1" height="35" fill="#c8e3c2" />
  <rect y="0" x="288" width="1" height="35" fill="#c8e3c2" />
  <rect y="0" x="288" width="1" height="35" fill="#c8e3c2" />
  <rect y="0" x="289" width="1" height="35" fill="#c8e3c2" />
  <rect y="0" x="289" width="1" height="35" fill="#c8e3c2" />
  <rect y="0" x="289" width="1" height="35" fill="#c8e3c2" />
  <rect y="0" x="290" width="1" height="35" fill="#c8e3c2" />
  <rect y="0" x="290" width="1" height="35" fill="#c8e3c2" />
  <rect y="0" x="290" width="1" height="35" fill="#c8e3c2" />
  <rect y="0" x="290" width="1" height="35" fill="#c8e3c2" />
  <rect y="0" x="290" width="1" height="35" fill="#c8e3c2" />
  <rect y="0" x="290" width="1" height="35" fill="#c8e3c2" />
  <rect y="0" x="290" width="1" height="35" fill="#c8e3c2" />
  <rect y="0" x="291" width="1" height="35" fill="#c8e3c2" />
  <rect y="0" x="291" width="1" height="35" fill="#c8e3c2" />
  <rect y="0" x="291" width="1" height="35" fill="#c8e3c2" />
  <rect y="0" x="291" width="1" height="35" fill="#c8e3c2" />
  <rect y="0" x="292" width="1" height="35" fill="#c8e3c2" />
  <rect y="0" x="292" width="1" height="35" fill="#c8e3c2" />
  <rect y="0" x="292" width="1" height="35" fill="#c8e3c2" />
  <rect y="0" x="292" width="1" height="35" fill="#c8e3c2" />
  <rect y="0" x="292" width="1" height="35" fill="#c8e3c2" />
  <rect y="0" x="293" width="1" height="35" fill="#c8e3c2" />
  <rect y="0" x="293" width="1" height="35" fill="#c8e3c2" />
  <rect y="0" x="293" width="1" height="35" fill="#c8e3c2" />
  <rect y="0" x="293" width="1" height="35" fill="#c8e3c2" />
  <rect y="0" x="294" width="1" height="35" fill="#c8e3c2" />
  <rect y="0" x="294" width="1" height="35" fill="#c8e3c2" />
  <rect y="0" x="294" width="1" height="35" fill="#c8e3c2" />
  <rect y="0" x="294" width="1" height="35" fill="#c8e3c2" />
  <rect y="0" x="294" width="1" height="35" fill="#c8e3c2" />
  <rect y="0" x="295" width="1" height="35" fill="#c8e3c2" />
  <rect y="0" x="295" width="1" height="35" fill="#c8e3c2" />
  <rect y="0" x="295" width="1" height="35" fill="#c8e3c2" />
  <rect y="0" x="296" width="1" height="35" fill="#c8e3c2" />
  <rect y="0" x="296" width="1" height="35" fill="#c8e3c2" />
  <rect y="0" x="296" width="1" height="35" fill="#c8e3c2" />
  <rect y="0" x="296" width="1" height="35" fill="#c8e3c2" />
  <rect y="0" x="296" width="1" height="35" fill="#c8e3c2" />
  <rect y="0" x="296" width="1" height="35" fill="#c8e3c2" />
  <rect y="0" x="296" width="1" height="35" fill="#c8e3c2" />
  <rect y="0" x="296" width="1" height="35" fill="#c8e3c2" />
  <rect y="0" x="296" width="1" height="35" fill="#c8e3c2" />
  <rect y="0" x="297" width="1" height="35" fill="#c8e3c2" />
  <rect y="0" x="297" width="1" height="35" fill="#c8e3c2" />
  <rect y="0" x="298" width="1" height="35" fill="#c8e3c2" />
  <rect y="0" x="298" width="1" height="35" fill="#c8e3c2" />
  <rect y="0" x="298" width="1" height="35" fill="#c8e3c2" />
  <rect y="0" x="298" width="1" height="35" fill="#c8e3c2" />
  <rect y="0" x="299" width="1" height="35" fill="#c8e3c2" />
  <rect y="0" x="299" width="1" height="35" fill="#c8e3c2" />
  <rect y="0" x="299" width="1" height="35" fill="#c8e3c2" />
  <rect y="0" x="299" width="1" height="35" fill="#c8e3c2" />
  <rect y="0" x="299" width="1" height="35" fill="#c8e3c2" />
  <rect y="0" x="300" width="1" height="35" fill="#c8e3c2" />
  <rect y="0" x="300" width="1" height="35" fill="#c8e3c2" />
  <rect y="0" x="300" width="1" height="35" fill="#c8e3c2" />
  <rect y="0" x="300" width="1" height="35" fill="#c8e3c2" />
  <rect y="0" x="301" width="1" height="35" fill="#c8e3c2" />
  <rect y="0" x="301" width="1" height="35" fill="#c8e3c2" />
  <rect y="0" x="302" width="1" height="35" fill="#c8e3c2" />
  <rect y="0" x="303" width="1" height="35" fill="#c8e3c2" />
  <rect y="0" x="303" width="1" height="35" fill="#c8e3c2" />
  <rect y="0" x="303" width="1" height="35" fill="#c8e3c2" />
  <rect y="0" x="304" width="1" height="35" fill="#c8e3c2" />
  <rect y="0" x="304" width="1" height="35" fill="#c8e3c2" />
  <rect y="0" x="306" width="1" height="35" fill="#c8e3c2" />
  <rect y="0" x="306" width="1" height="35" fill="#c8e3c2" />
  <rect y="0" x="307" width="1" height="35" fill="#c8e3c2" />
  <rect y="0" x="307" width="1" height="35" fill="#c8e3c2" />
  <rect y="0" x="312" width="1" height="35" fill="#c8e3c2" />
  <rect y="0" x="316" width="1" height="35" fill="#c8e3c2" />
  <rect y="0" x="317" width="1" height="35" fill="#c8e3c2" />
  <rect y="0" x="318" width="1" height="35" fill="#c8e3c2" />
  <rect y="0" x="318" width="1" height="35" fill="#c8e3c2" />
  <rect y="0" x="321" width="1" height="35" fill="#c8e3c2" />
  <rect y="0" x="322" width="1" height="35" fill="#c8e3c2" />
  <rect y="0" x="322" width="1" height="35" fill="#c8e3c2" />
  <rect y="0" x="323" width="1" height="35" fill="#c8e3c2" />
  <rect y="0" x="323" width="1" height="35" fill="#c8e3c2" />
  <rect y="0" x="323" width="1" height="35" fill="#c8e3c2" />
  <rect y="0" x="324" width="1" height="35" fill="#c8e3c2" />
  <rect y="0" x="324" width="1" height="35" fill="#c8e3c2" />
  <rect y="0" x="324" width="1" height="35" fill="#c8e3c2" />
  <rect y="0" x="324" width="1" height="35" fill="#c8e3c2" />
  <rect y="0" x="329" width="1" height="35" fill="#c8e3c2" />
  <rect y="0" x="344" width="1" height="35" fill="#c8e3c2" />
  <rect y="0" x="375" width="1" height="35" fill="#c8e3c2" />
  <rect y="0" x="387" width="1" height="35" fill="#c8e3c2" />
  <rect y="0" x="393" width="1" height="35" fill="#c8e3c2" />
  <rect y="0" x="394" width="1" height="35" fill="#c8e3c2" />
  <rect y="0" x="395" width="1" height="35" fill="#c8e3c2" />
  <rect y="0" x="402" width="1" height="35" fill="#c8e3c2" />
  <rect y="0" x="411" width="1" height="35" fill="#c8e3c2" />
</svg>
