<svg viewBox="0 0 442 35" shape-rendering="crispEdges" xmlns="http://www.w3.org/2000/svg">
  <rect y="0" x="0" width="439" height="35" fill="#cccccc" />
  <rect y="0" x="0" width="1" height="35" fill="#eecccc" />
  <rect y="0" x="95" width="1" height="35" fill="#eecccc" />
  <rect y="0" x="122" width="1" height="35" fill="#eecccc" />
  <rect y="0" x="141" width="1" height="35" fill="#eecccc" />
  <rect y="0" x="149" width="1" height="35" fill="#eecccc" />
  <rect y="0" x="150" width="1" height="35" fill="#eecccc" />
  <rect y="0" x="187" width="1" height="35" fill="#eecccc" />
  <rect y="0" x="202" width="1" height="35" fill="#eecccc" />
  <rect y="0" x="211" width="1" height="35" fill="#eecccc" />
  <rect y="0" x="231" width="1" height="35" fill="#eecccc" />
  <rect y="0" x="245" width="1" height="35" fill="#eecccc" />
  <rect y="0" x="254" width="1" height="35" fill="#eecccc" />
  <rect y="0" x="255" width="1" height="35" fill="#eecccc" />
  <rect y="0" x="266" width="1" height="35" fill="#eecccc" />
  <rect y="0" x="267" width="1" height="35" fill="#eecccc" />
  <rect y="0" x="270" width="1" height="35" fill="#eecccc" />
  <rect y="0" x="272" width="1" height="35" fill="#eecccc" />
  <rect y="0" x="272" width="1" height="35" fill="#eecccc" />
  <rect y="0" x="273" width="1" height="35" fill="#eecccc" />
  <rect y="0" x="273" width="1" height="35" fill="#eecccc" />
  <rect y="0" x="273" width="1" height="35" fill="#eecccc" />
  <rect y="0" x="273" width="1" height="35" fill="#eecccc" />
  <rect y="0" x="275" width="1" height="35" fill="#eecccc" />
  <rect y="0" x="275" width="1" height="35" fill="#eecccc" />
  <rect y="0" x="278" width="1" height="35" fill="#eecccc" />
  <rect y="0" x="279" width="1" height="35" fill="#eecccc" />
  <rect y="0" x="279" width="1" height="35" fill="#eecccc" />
  <rect y="0" x="281" width="1" height="35" fill="#eecccc" />
  <rect y="0" x="282" width="1" height="35" fill="#eecccc" />
  <rect y="0" x="283" width="1" height="35" fill="#eecccc" />
  <rect y="0" x="283" width="1" height="35" fill="#eecccc" />
  <rect y="0" x="289" width="1" height="35" fill="#eecccc" />
  <rect y="0" x="291" width="1" height="35" fill="#eecccc" />
  <rect y="0" x="291" width="1" height="35" fill="#eecccc" />
  <rect y="0" x="291" width="1" height="35" fill="#eecccc" />
  <rect y="0" x="292" width="1" height="35" fill="#eecccc" />
  <rect y="0" x="296" width="1" height="35" fill="#eecccc" />
  <rect y="0" x="297" width="1" height="35" fill="#eecccc" />
  <rect y="0" x="298" width="1" height="35" fill="#eecccc" />
  <rect y="0" x="298" width="1" height="35" fill="#eecccc" />
  <rect y="0" x="298" width="1" height="35" fill="#eecccc" />
  <rect y="0" x="298" width="1" height="35" fill="#eecccc" />
  <rect y="0" x="300" width="1" height="35" fill="#eecccc" />
  <rect y="0" x="300" width="1" height="35" fill="#eecccc" />
  <rect y="0" x="300" width="1" height="35" fill="#eecccc" />
  <rect y="0" x="301" width="1" height="35" fill="#eecccc" />
  <rect y="0" x="301" width="1" height="35" fill="#eecccc" />
  <rect y="0" x="301" width="1" height="35" fill="#eecccc" />
  <rect y="0" x="302" width="1" height="35" fill="#eecccc" />
  <rect y="0" x="302" width="1" height="35" fill="#eecccc" />
  <rect y="0" x="303" width="1" height="35" fill="#eecccc" />
  <rect y="0" x="303" width="1" height="35" fill="#eecccc" />
  <rect y="0" x="303" width="1" height="35" fill="#eecccc" />
  <rect y="0" x="303" width="1" height="35" fill="#eecccc" />
  <rect y="0" x="303" width="1" height="35" fill="#eecccc" />
  <rect y="0" x="303" width="1" height="35" fill="#eecccc" />
  <rect y="0" x="304" width="1" height="35" fill="#eecccc" />
  <rect y="0" x="304" width="1" height="35" fill="#eecccc" />
  <rect y="0" x="304" width="1" height="35" fill="#eecccc" />
  <rect y="0" x="305" width="1" height="35" fill="#eecccc" />
  <rect y="0" x="305" width="1" height="35" fill="#eecccc" />
  <rect y="0" x="305" width="1" height="35" fill="#eecccc" />
  <rect y="0" x="306" width="1" height="35" fill="#eecccc" />
  <rect y="0" x="306" width="1" height="35" fill="#eecccc" />
  <rect y="0" x="306" width="1" height="35" fill="#eecccc" />
  <rect y="0" x="306" width="1" height="35" fill="#eecccc" />
  <rect y="0" x="307" width="1" height="35" fill="#eecccc" />
  <rect y="0" x="307" width="1" height="35" fill="#eecccc" />
  <rect y="0" x="307" width="1" height="35" fill="#eecccc" />
  <rect y="0" x="307" width="1" height="35" fill="#eecccc" />
  <rect y="0" x="307" width="1" height="35" fill="#eecccc" />
  <rect y="0" x="308" width="1" height="35" fill="#eecccc" />
  <rect y="0" x="308" width="1" height="35" fill="#eecccc" />
  <rect y="0" x="308" width="1" height="35" fill="#eecccc" />
  <rect y="0" x="308" width="1" height="35" fill="#eecccc" />
  <rect y="0" x="308" width="1" height="35" fill="#eecccc" />
  <rect y="0" x="309" width="1" height="35" fill="#eecccc" />
  <rect y="0" x="309" width="1" height="35" fill="#eecccc" />
  <rect y="0" x="309" width="1" height="35" fill="#eecccc" />
  <rect y="0" x="309" width="1" height="35" fill="#eecccc" />
  <rect y="0" x="309" width="1" height="35" fill="#eecccc" />
  <rect y="0" x="309" width="1" height="35" fill="#eecccc" />
  <rect y="0" x="309" width="1" height="35" fill="#eecccc" />
  <rect y="0" x="309" width="1" height="35" fill="#eecccc" />
  <rect y="0" x="310" width="1" height="35" fill="#eecccc" />
  <rect y="0" x="310" width="1" height="35" fill="#eecccc" />
  <rect y="0" x="310" width="1" height="35" fill="#eecccc" />
  <rect y="0" x="310" width="1" height="35" fill="#eecccc" />
  <rect y="0" x="311" width="1" height="35" fill="#eecccc" />
  <rect y="0" x="311" width="1" height="35" fill="#eecccc" />
  <rect y="0" x="311" width="1" height="35" fill="#eecccc" />
  <rect y="0" x="311" width="1" height="35" fill="#eecccc" />
  <rect y="0" x="311" width="1" height="35" fill="#eecccc" />
  <rect y="0" x="311" width="1" height="35" fill="#eecccc" />
  <rect y="0" x="312" width="1" height="35" fill="#eecccc" />
  <rect y="0" x="312" width="1" height="35" fill="#eecccc" />
  <rect y="0" x="312" width="1" height="35" fill="#eecccc" />
  <rect y="0" x="312" width="1" height="35" fill="#eecccc" />
  <rect y="0" x="312" width="1" height="35" fill="#eecccc" />
  <rect y="0" x="312" width="1" height="35" fill="#eecccc" />
  <rect y="0" x="313" width="1" height="35" fill="#eecccc" />
  <rect y="0" x="313" width="1" height="35" fill="#eecccc" />
  <rect y="0" x="313" width="1" height="35" fill="#eecccc" />
  <rect y="0" x="313" width="1" height="35" fill="#eecccc" />
  <rect y="0" x="313" width="1" height="35" fill="#eecccc" />
  <rect y="0" x="313" width="1" height="35" fill="#eecccc" />
  <rect y="0" x="313" width="1" height="35" fill="#eecccc" />
  <rect y="0" x="313" width="1" height="35" fill="#eecccc" />
  <rect y="0" x="313" width="1" height="35" fill="#eecccc" />
  <rect y="0" x="314" width="1" height="35" fill="#eecccc" />
  <rect y="0" x="314" width="1" height="35" fill="#eecccc" />
  <rect y="0" x="314" width="1" height="35" fill="#eecccc" />
  <rect y="0" x="314" width="1" height="35" fill="#eecccc" />
  <rect y="0" x="314" width="1" height="35" fill="#eecccc" />
  <rect y="0" x="315" width="1" height="35" fill="#eecccc" />
  <rect y="0" x="315" width="1" height="35" fill="#eecccc" />
  <rect y="0" x="315" width="1" height="35" fill="#eecccc" />
  <rect y="0" x="315" width="1" height="35" fill="#eecccc" />
  <rect y="0" x="315" width="1" height="35" fill="#eecccc" />
  <rect y="0" x="315" width="1" height="35" fill="#eecccc" />
  <rect y="0" x="315" width="1" height="35" fill="#eecccc" />
  <rect y="0" x="316" width="1" height="35" fill="#eecccc" />
  <rect y="0" x="316" width="1" height="35" fill="#eecccc" />
  <rect y="0" x="316" width="1" height="35" fill="#eecccc" />
  <rect y="0" x="316" width="1" height="35" fill="#eecccc" />
  <rect y="0" x="316" width="1" height="35" fill="#eecccc" />
  <rect y="0" x="317" width="1" height="35" fill="#eecccc" />
  <rect y="0" x="317" width="1" height="35" fill="#eecccc" />
  <rect y="0" x="317" width="1" height="35" fill="#eecccc" />
  <rect y="0" x="317" width="1" height="35" fill="#eecccc" />
  <rect y="0" x="317" width="1" height="35" fill="#eecccc" />
  <rect y="0" x="317" width="1" height="35" fill="#eecccc" />
  <rect y="0" x="317" width="1" height="35" fill="#eecccc" />
  <rect y="0" x="317" width="1" height="35" fill="#eecccc" />
  <rect y="0" x="318" width="1" height="35" fill="#eecccc" />
  <rect y="0" x="318" width="1" height="35" fill="#eecccc" />
  <rect y="0" x="318" width="1" height="35" fill="#eecccc" />
  <rect y="0" x="318" width="1" height="35" fill="#eecccc" />
  <rect y="0" x="318" width="1" height="35" fill="#eecccc" />
  <rect y="0" x="318" width="1" height="35" fill="#eecccc" />
  <rect y="0" x="319" width="1" height="35" fill="#eecccc" />
  <rect y="0" x="319" width="1" height="35" fill="#eecccc" />
  <rect y="0" x="319" width="1" height="35" fill="#eecccc" />
  <rect y="0" x="319" width="1" height="35" fill="#eecccc" />
  <rect y="0" x="319" width="1" height="35" fill="#eecccc" />
  <rect y="0" x="319" width="1" height="35" fill="#eecccc" />
  <rect y="0" x="319" width="1" height="35" fill="#eecccc" />
  <rect y="0" x="319" width="1" height="35" fill="#eecccc" />
  <rect y="0" x="319" width="1" height="35" fill="#eecccc" />
  <rect y="0" x="319" width="1" height="35" fill="#eecccc" />
  <rect y="0" x="319" width="1" height="35" fill="#eecccc" />
  <rect y="0" x="319" width="1" height="35" fill="#eecccc" />
  <rect y="0" x="320" width="1" height="35" fill="#eecccc" />
  <rect y="0" x="320" width="1" height="35" fill="#eecccc" />
  <rect y="0" x="320" width="1" height="35" fill="#eecccc" />
  <rect y="0" x="320" width="1" height="35" fill="#eecccc" />
  <rect y="0" x="320" width="1" height="35" fill="#eecccc" />
  <rect y="0" x="320" width="1" height="35" fill="#eecccc" />
  <rect y="0" x="320" width="1" height="35" fill="#eecccc" />
  <rect y="0" x="320" width="1" height="35" fill="#eecccc" />
  <rect y="0" x="320" width="1" height="35" fill="#eecccc" />
  <rect y="0" x="320" width="1" height="35" fill="#eecccc" />
  <rect y="0" x="320" width="1" height="35" fill="#eecccc" />
  <rect y="0" x="321" width="1" height="35" fill="#eecccc" />
  <rect y="0" x="321" width="1" height="35" fill="#eecccc" />
  <rect y="0" x="321" width="1" height="35" fill="#eecccc" />
  <rect y="0" x="321" width="1" height="35" fill="#eecccc" />
  <rect y="0" x="321" width="1" height="35" fill="#eecccc" />
  <rect y="0" x="321" width="1" height="35" fill="#eecccc" />
  <rect y="0" x="321" width="1" height="35" fill="#eecccc" />
  <rect y="0" x="321" width="1" height="35" fill="#eecccc" />
  <rect y="0" x="321" width="1" height="35" fill="#eecccc" />
  <rect y="0" x="322" width="1" height="35" fill="#eecccc" />
  <rect y="0" x="322" width="1" height="35" fill="#eecccc" />
  <rect y="0" x="322" width="1" height="35" fill="#eecccc" />
  <rect y="0" x="322" width="1" height="35" fill="#eecccc" />
  <rect y="0" x="323" width="1" height="35" fill="#eecccc" />
  <rect y="0" x="323" width="1" height="35" fill="#eecccc" />
  <rect y="0" x="323" width="1" height="35" fill="#eecccc" />
  <rect y="0" x="323" width="1" height="35" fill="#eecccc" />
  <rect y="0" x="323" width="1" height="35" fill="#eecccc" />
  <rect y="0" x="323" width="1" height="35" fill="#eecccc" />
  <rect y="0" x="323" width="1" height="35" fill="#eecccc" />
  <rect y="0" x="323" width="1" height="35" fill="#eecccc" />
  <rect y="0" x="323" width="1" height="35" fill="#eecccc" />
  <rect y="0" x="323" width="1" height="35" fill="#eecccc" />
  <rect y="0" x="323" width="1" height="35" fill="#eecccc" />
  <rect y="0" x="323" width="1" height="35" fill="#eecccc" />
  <rect y="0" x="323" width="1" height="35" fill="#eecccc" />
  <rect y="0" x="323" width="1" height="35" fill="#eecccc" />
  <rect y="0" x="323" width="1" height="35" fill="#eecccc" />
  <rect y="0" x="323" width="1" height="35" fill="#eecccc" />
  <rect y="0" x="324" width="1" height="35" fill="#eecccc" />
  <rect y="0" x="324" width="1" height="35" fill="#eecccc" />
  <rect y="0" x="324" width="1" height="35" fill="#eecccc" />
  <rect y="0" x="324" width="1" height="35" fill="#eecccc" />
  <rect y="0" x="324" width="1" height="35" fill="#eecccc" />
  <rect y="0" x="325" width="1" height="35" fill="#eecccc" />
  <rect y="0" x="325" width="1" height="35" fill="#eecccc" />
  <rect y="0" x="325" width="1" height="35" fill="#eecccc" />
  <rect y="0" x="325" width="1" height="35" fill="#eecccc" />
  <rect y="0" x="325" width="1" height="35" fill="#eecccc" />
  <rect y="0" x="325" width="1" height="35" fill="#eecccc" />
  <rect y="0" x="325" width="1" height="35" fill="#eecccc" />
  <rect y="0" x="326" width="1" height="35" fill="#eecccc" />
  <rect y="0" x="326" width="1" height="35" fill="#eecccc" />
  <rect y="0" x="326" width="1" height="35" fill="#eecccc" />
  <rect y="0" x="326" width="1" height="35" fill="#eecccc" />
  <rect y="0" x="326" width="1" height="35" fill="#eecccc" />
  <rect y="0" x="326" width="1" height="35" fill="#eecccc" />
  <rect y="0" x="326" width="1" height="35" fill="#eecccc" />
  <rect y="0" x="327" width="1" height="35" fill="#eecccc" />
  <rect y="0" x="327" width="1" height="35" fill="#eecccc" />
  <rect y="0" x="327" width="1" height="35" fill="#eecccc" />
  <rect y="0" x="327" width="1" height="35" fill="#eecccc" />
  <rect y="0" x="327" width="1" height="35" fill="#eecccc" />
  <rect y="0" x="328" width="1" height="35" fill="#eecccc" />
  <rect y="0" x="328" width="1" height="35" fill="#eecccc" />
  <rect y="0" x="329" width="1" height="35" fill="#eecccc" />
  <rect y="0" x="329" width="1" height="35" fill="#eecccc" />
  <rect y="0" x="329" width="1" height="35" fill="#eecccc" />
  <rect y="0" x="330" width="1" height="35" fill="#eecccc" />
  <rect y="0" x="330" width="1" height="35" fill="#eecccc" />
  <rect y="0" x="330" width="1" height="35" fill="#eecccc" />
  <rect y="0" x="330" width="1" height="35" fill="#eecccc" />
  <rect y="0" x="331" width="1" height="35" fill="#eecccc" />
  <rect y="0" x="331" width="1" height="35" fill="#eecccc" />
  <rect y="0" x="331" width="1" height="35" fill="#eecccc" />
  <rect y="0" x="332" width="1" height="35" fill="#eecccc" />
  <rect y="0" x="333" width="1" height="35" fill="#eecccc" />
  <rect y="0" x="333" width="1" height="35" fill="#eecccc" />
  <rect y="0" x="333" width="1" height="35" fill="#eecccc" />
  <rect y="0" x="334" width="1" height="35" fill="#eecccc" />
  <rect y="0" x="334" width="1" height="35" fill="#eecccc" />
  <rect y="0" x="339" width="1" height="35" fill="#eecccc" />
  <rect y="0" x="343" width="1" height="35" fill="#eecccc" />
  <rect y="0" x="343" width="1" height="35" fill="#eecccc" />
  <rect y="0" x="344" width="1" height="35" fill="#eecccc" />
  <rect y="0" x="344" width="1" height="35" fill="#eecccc" />
  <rect y="0" x="344" width="1" height="35" fill="#eecccc" />
  <rect y="0" x="345" width="1" height="35" fill="#eecccc" />
  <rect y="0" x="345" width="1" height="35" fill="#eecccc" />
  <rect y="0" x="346" width="1" height="35" fill="#eecccc" />
  <rect y="0" x="348" width="1" height="35" fill="#eecccc" />
  <rect y="0" x="349" width="1" height="35" fill="#eecccc" />
  <rect y="0" x="349" width="1" height="35" fill="#eecccc" />
  <rect y="0" x="350" width="1" height="35" fill="#eecccc" />
  <rect y="0" x="350" width="1" height="35" fill="#eecccc" />
  <rect y="0" x="350" width="1" height="35" fill="#eecccc" />
  <rect y="0" x="351" width="1" height="35" fill="#eecccc" />
  <rect y="0" x="351" width="1" height="35" fill="#eecccc" />
  <rect y="0" x="351" width="1" height="35" fill="#eecccc" />
  <rect y="0" x="351" width="1" height="35" fill="#eecccc" />
  <rect y="0" x="354" width="1" height="35" fill="#eecccc" />
  <rect y="0" x="356" width="1" height="35" fill="#eecccc" />
  <rect y="0" x="371" width="1" height="35" fill="#eecccc" />
  <rect y="0" x="402" width="1" height="35" fill="#eecccc" />
  <rect y="0" x="408" width="1" height="35" fill="#eecccc" />
  <rect y="0" x="414" width="1" height="35" fill="#eecccc" />
  <rect y="0" x="420" width="1" height="35" fill="#eecccc" />
  <rect y="0" x="421" width="1" height="35" fill="#eecccc" />
  <rect y="0" x="422" width="1" height="35" fill="#eecccc" />
  <rect y="0" x="429" width="1" height="35" fill="#eecccc" />
  <rect y="0" x="438" width="1" height="35" fill="#eecccc" />
	   <rect y="0" x="0" width="1" height="35" fill="#a3bff4" />
	   <rect y="0" x="141" width="1" height="35" fill="#a3bff4" />
	   <rect y="0" x="149" width="1" height="35" fill="#a3bff4" />
	   <rect y="0" x="202" width="1" height="35" fill="#a3bff4" />
	   <rect y="0" x="270" width="1" height="35" fill="#a3bff4" />
	   <rect y="0" x="272" width="1" height="35" fill="#a3bff4" />
	   <rect y="0" x="273" width="1" height="35" fill="#a3bff4" />
	   <rect y="0" x="275" width="1" height="35" fill="#a3bff4" />
	   <rect y="0" x="282" width="1" height="35" fill="#a3bff4" />
	   <rect y="0" x="291" width="1" height="35" fill="#a3bff4" />
	   <rect y="0" x="298" width="1" height="35" fill="#a3bff4" />
	   <rect y="0" x="300" width="1" height="35" fill="#a3bff4" />
	   <rect y="0" x="302" width="1" height="35" fill="#a3bff4" />
	   <rect y="0" x="304" width="1" height="35" fill="#a3bff4" />
	   <rect y="0" x="309" width="1" height="35" fill="#a3bff4" />
	   <rect y="0" x="309" width="1" height="35" fill="#a3bff4" />
	   <rect y="0" x="310" width="1" height="35" fill="#a3bff4" />
	   <rect y="0" x="310" width="1" height="35" fill="#a3bff4" />
	   <rect y="0" x="311" width="1" height="35" fill="#a3bff4" />
	   <rect y="0" x="312" width="1" height="35" fill="#a3bff4" />
	   <rect y="0" x="313" width="1" height="35" fill="#a3bff4" />
	   <rect y="0" x="315" width="1" height="35" fill="#a3bff4" />
	   <rect y="0" x="315" width="1" height="35" fill="#a3bff4" />
	   <rect y="0" x="316" width="1" height="35" fill="#a3bff4" />
	   <rect y="0" x="317" width="1" height="35" fill="#a3bff4" />
	   <rect y="0" x="317" width="1" height="35" fill="#a3bff4" />
	   <rect y="0" x="318" width="1" height="35" fill="#a3bff4" />
	   <rect y="0" x="318" width="1" height="35" fill="#a3bff4" />
	   <rect y="0" x="318" width="1" height="35" fill="#a3bff4" />
	   <rect y="0" x="319" width="1" height="35" fill="#a3bff4" />
	   <rect y="0" x="319" width="1" height="35" fill="#a3bff4" />
	   <rect y="0" x="319" width="1" height="35" fill="#a3bff4" />
	   <rect y="0" x="320" width="1" height="35" fill="#a3bff4" />
	   <rect y="0" x="320" width="1" height="35" fill="#a3bff4" />
	   <rect y="0" x="321" width="1" height="35" fill="#a3bff4" />
	   <rect y="0" x="321" width="1" height="35" fill="#a3bff4" />
	   <rect y="0" x="321" width="1" height="35" fill="#a3bff4" />
	   <rect y="0" x="322" width="1" height="35" fill="#a3bff4" />
	   <rect y="0" x="323" width="1" height="35" fill="#a3bff4" />
	   <rect y="0" x="323" width="1" height="35" fill="#a3bff4" />
	   <rect y="0" x="323" width="1" height="35" fill="#a3bff4" />
	   <rect y="0" x="323" width="1" height="35" fill="#a3bff4" />
	   <rect y="0" x="324" width="1" height="35" fill="#a3bff4" />
	   <rect y="0" x="325" width="1" height="35" fill="#a3bff4" />
	   <rect y="0" x="325" width="1" height="35" fill="#a3bff4" />
	   <rect y="0" x="326" width="1" height="35" fill="#a3bff4" />
	   <rect y="0" x="327" width="1" height="35" fill="#a3bff4" />
	   <rect y="0" x="328" width="1" height="35" fill="#a3bff4" />
	   <rect y="0" x="329" width="1" height="35" fill="#a3bff4" />
	   <rect y="0" x="330" width="1" height="35" fill="#a3bff4" />
	   <rect y="0" x="330" width="1" height="35" fill="#a3bff4" />
	   <rect y="0" x="331" width="1" height="35" fill="#a3bff4" />
	   <rect y="0" x="331" width="1" height="35" fill="#a3bff4" />
	   <rect y="0" x="333" width="1" height="35" fill="#a3bff4" />
	   <rect y="0" x="333" width="1" height="35" fill="#a3bff4" />
	   <rect y="0" x="334" width="1" height="35" fill="#a3bff4" />
	   <rect y="0" x="339" width="1" height="35" fill="#a3bff4" />
	   <rect y="0" x="343" width="1" height="35" fill="#a3bff4" />
	   <rect y="0" x="344" width="1" height="35" fill="#a3bff4" />
	   <rect y="0" x="344" width="1" height="35" fill="#a3bff4" />
	   <rect y="0" x="344" width="1" height="35" fill="#a3bff4" />
	   <rect y="0" x="345" width="1" height="35" fill="#a3bff4" />
	   <rect y="0" x="348" width="1" height="35" fill="#a3bff4" />
	   <rect y="0" x="349" width="1" height="35" fill="#a3bff4" />
	   <rect y="0" x="349" width="1" height="35" fill="#a3bff4" />
	   <rect y="0" x="350" width="1" height="35" fill="#a3bff4" />
	   <rect y="0" x="351" width="1" height="35" fill="#a3bff4" />
	   <rect y="0" x="356" width="1" height="35" fill="#a3bff4" />
	   <rect y="0" x="371" width="1" height="35" fill="#a3bff4" />
	   <rect y="0" x="408" width="1" height="35" fill="#a3bff4" />
	   <rect y="0" x="421" width="1" height="35" fill="#a3bff4" />
</svg>
