<svg viewBox="0 0 442 35" shape-rendering="crispEdges" xmlns="http://www.w3.org/2000/svg">
  <rect y="0" x="27" width="412" height="35" fill="#cccccc" />
  <rect y="0" x="27" width="1" height="35" fill="#eecccc" />
  <rect y="0" x="49" width="1" height="35" fill="#eecccc" />
  <rect y="0" x="85" width="1" height="35" fill="#eecccc" />
  <rect y="0" x="89" width="1" height="35" fill="#eecccc" />
  <rect y="0" x="95" width="1" height="35" fill="#eecccc" />
  <rect y="0" x="125" width="1" height="35" fill="#eecccc" />
  <rect y="0" x="151" width="1" height="35" fill="#eecccc" />
  <rect y="0" x="175" width="1" height="35" fill="#eecccc" />
  <rect y="0" x="181" width="1" height="35" fill="#eecccc" />
  <rect y="0" x="217" width="1" height="35" fill="#eecccc" />
  <rect y="0" x="218" width="1" height="35" fill="#eecccc" />
  <rect y="0" x="219" width="1" height="35" fill="#eecccc" />
  <rect y="0" x="222" width="1" height="35" fill="#eecccc" />
  <rect y="0" x="231" width="1" height="35" fill="#eecccc" />
  <rect y="0" x="249" width="1" height="35" fill="#eecccc" />
  <rect y="0" x="262" width="1" height="35" fill="#eecccc" />
  <rect y="0" x="274" width="1" height="35" fill="#eecccc" />
  <rect y="0" x="283" width="1" height="35" fill="#eecccc" />
  <rect y="0" x="316" width="1" height="35" fill="#eecccc" />
  <rect y="0" x="323" width="1" height="35" fill="#eecccc" />
  <rect y="0" x="324" width="1" height="35" fill="#eecccc" />
  <rect y="0" x="326" width="1" height="35" fill="#eecccc" />
  <rect y="0" x="347" width="1" height="35" fill="#eecccc" />
  <rect y="0" x="355" width="1" height="35" fill="#eecccc" />
  <rect y="0" x="402" width="1" height="35" fill="#eecccc" />
  <rect y="0" x="407" width="1" height="35" fill="#eecccc" />
  <rect y="0" x="414" width="1" height="35" fill="#eecccc" />
  <rect y="0" x="419" width="1" height="35" fill="#eecccc" />
  <rect y="0" x="422" width="1" height="35" fill="#eecccc" />
  <rect y="0" x="429" width="1" height="35" fill="#eecccc" />
  <rect y="0" x="438" width="1" height="35" fill="#eecccc" />
	   <rect y="0" x="27" width="1" height="35" fill="#a3bff4" />
	   <rect y="0" x="49" width="1" height="35" fill="#a3bff4" />
	   <rect y="0" x="85" width="1" height="35" fill="#a3bff4" />
	   <rect y="0" x="89" width="1" height="35" fill="#a3bff4" />
	   <rect y="0" x="95" width="1" height="35" fill="#a3bff4" />
	   <rect y="0" x="125" width="1" height="35" fill="#a3bff4" />
	   <rect y="0" x="151" width="1" height="35" fill="#a3bff4" />
	   <rect y="0" x="175" width="1" height="35" fill="#a3bff4" />
	   <rect y="0" x="181" width="1" height="35" fill="#a3bff4" />
	   <rect y="0" x="217" width="1" height="35" fill="#a3bff4" />
	   <rect y="0" x="218" width="1" height="35" fill="#a3bff4" />
	   <rect y="0" x="219" width="1" height="35" fill="#a3bff4" />
	   <rect y="0" x="222" width="1" height="35" fill="#a3bff4" />
	   <rect y="0" x="231" width="1" height="35" fill="#a3bff4" />
	   <rect y="0" x="249" width="1" height="35" fill="#a3bff4" />
	   <rect y="0" x="262" width="1" height="35" fill="#a3bff4" />
	   <rect y="0" x="274" width="1" height="35" fill="#a3bff4" />
	   <rect y="0" x="283" width="1" height="35" fill="#a3bff4" />
	   <rect y="0" x="316" width="1" height="35" fill="#a3bff4" />
	   <rect y="0" x="323" width="1" height="35" fill="#a3bff4" />
	   <rect y="0" x="324" width="1" height="35" fill="#a3bff4" />
	   <rect y="0" x="326" width="1" height="35" fill="#a3bff4" />
	   <rect y="0" x="347" width="1" height="35" fill="#a3bff4" />
	   <rect y="0" x="355" width="1" height="35" fill="#a3bff4" />
	   <rect y="0" x="402" width="1" height="35" fill="#a3bff4" />
	   <rect y="0" x="407" width="1" height="35" fill="#a3bff4" />
	   <rect y="0" x="414" width="1" height="35" fill="#a3bff4" />
	   <rect y="0" x="419" width="1" height="35" fill="#a3bff4" />
	   <rect y="0" x="422" width="1" height="35" fill="#a3bff4" />
	   <rect y="0" x="429" width="1" height="35" fill="#a3bff4" />
	   <rect y="0" x="438" width="1" height="35" fill="#a3bff4" />
</svg>
