<svg viewBox="0 0 442 35" shape-rendering="crispEdges" xmlns="http://www.w3.org/2000/svg">
  <rect y="0" x="181" width="249" height="35" fill="#cccccc" />
  <rect y="0" x="181" width="1" height="35" fill="#eecccc" />
  <rect y="0" x="185" width="1" height="35" fill="#eecccc" />
  <rect y="0" x="292" width="1" height="35" fill="#eecccc" />
  <rect y="0" x="294" width="1" height="35" fill="#eecccc" />
  <rect y="0" x="295" width="1" height="35" fill="#eecccc" />
  <rect y="0" x="295" width="1" height="35" fill="#eecccc" />
  <rect y="0" x="300" width="1" height="35" fill="#eecccc" />
  <rect y="0" x="301" width="1" height="35" fill="#eecccc" />
  <rect y="0" x="302" width="1" height="35" fill="#eecccc" />
  <rect y="0" x="306" width="1" height="35" fill="#eecccc" />
  <rect y="0" x="309" width="1" height="35" fill="#eecccc" />
  <rect y="0" x="310" width="1" height="35" fill="#eecccc" />
  <rect y="0" x="310" width="1" height="35" fill="#eecccc" />
  <rect y="0" x="313" width="1" height="35" fill="#eecccc" />
  <rect y="0" x="313" width="1" height="35" fill="#eecccc" />
  <rect y="0" x="314" width="1" height="35" fill="#eecccc" />
  <rect y="0" x="314" width="1" height="35" fill="#eecccc" />
  <rect y="0" x="314" width="1" height="35" fill="#eecccc" />
  <rect y="0" x="314" width="1" height="35" fill="#eecccc" />
  <rect y="0" x="314" width="1" height="35" fill="#eecccc" />
  <rect y="0" x="314" width="1" height="35" fill="#eecccc" />
  <rect y="0" x="315" width="1" height="35" fill="#eecccc" />
  <rect y="0" x="315" width="1" height="35" fill="#eecccc" />
  <rect y="0" x="315" width="1" height="35" fill="#eecccc" />
  <rect y="0" x="315" width="1" height="35" fill="#eecccc" />
  <rect y="0" x="315" width="1" height="35" fill="#eecccc" />
  <rect y="0" x="317" width="1" height="35" fill="#eecccc" />
  <rect y="0" x="317" width="1" height="35" fill="#eecccc" />
  <rect y="0" x="318" width="1" height="35" fill="#eecccc" />
  <rect y="0" x="318" width="1" height="35" fill="#eecccc" />
  <rect y="0" x="318" width="1" height="35" fill="#eecccc" />
  <rect y="0" x="318" width="1" height="35" fill="#eecccc" />
  <rect y="0" x="319" width="1" height="35" fill="#eecccc" />
  <rect y="0" x="319" width="1" height="35" fill="#eecccc" />
  <rect y="0" x="320" width="1" height="35" fill="#eecccc" />
  <rect y="0" x="320" width="1" height="35" fill="#eecccc" />
  <rect y="0" x="320" width="1" height="35" fill="#eecccc" />
  <rect y="0" x="320" width="1" height="35" fill="#eecccc" />
  <rect y="0" x="323" width="1" height="35" fill="#eecccc" />
  <rect y="0" x="323" width="1" height="35" fill="#eecccc" />
  <rect y="0" x="323" width="1" height="35" fill="#eecccc" />
  <rect y="0" x="323" width="1" height="35" fill="#eecccc" />
  <rect y="0" x="324" width="1" height="35" fill="#eecccc" />
  <rect y="0" x="324" width="1" height="35" fill="#eecccc" />
  <rect y="0" x="325" width="1" height="35" fill="#eecccc" />
  <rect y="0" x="328" width="1" height="35" fill="#eecccc" />
  <rect y="0" x="329" width="1" height="35" fill="#eecccc" />
  <rect y="0" x="334" width="1" height="35" fill="#eecccc" />
  <rect y="0" x="342" width="1" height="35" fill="#eecccc" />
  <rect y="0" x="343" width="1" height="35" fill="#eecccc" />
  <rect y="0" x="345" width="1" height="35" fill="#eecccc" />
  <rect y="0" x="349" width="1" height="35" fill="#eecccc" />
  <rect y="0" x="353" width="1" height="35" fill="#eecccc" />
  <rect y="0" x="353" width="1" height="35" fill="#eecccc" />
  <rect y="0" x="408" width="1" height="35" fill="#eecccc" />
  <rect y="0" x="429" width="1" height="35" fill="#eecccc" />
</svg>
